<svg width="14" height="13" viewBox="0 0 14 13" fill="none" xmlns="http://www.w3.org/2000/svg">
<path d="M12.6 5.79443C12.6023 6.60101 12.3967 7.39669 12 8.11665C11.5296 8.97938 10.8065 9.70503 9.91159 10.2123C9.01673 10.7196 7.98546 10.9885 6.9333 10.9889C6.05339 10.991 5.18538 10.8025 4.39997 10.4389L0.599976 11.6L1.86664 8.11665C1.46993 7.39669 1.26435 6.60101 1.26664 5.79443C1.26705 4.82995 1.56038 3.88462 2.11379 3.06433C2.66719 2.24403 3.45881 1.58117 4.39997 1.14999C5.18538 0.78634 6.05339 0.59789 6.9333 0.599993H7.26663C8.65619 0.670266 9.96866 1.2079 10.9527 2.10996C11.9368 3.01202 12.5233 4.21511 12.6 5.48887V5.79443Z" stroke="#EEEEEE" stroke-width="1.2" stroke-linecap="round" stroke-linejoin="round"/>
</svg>
