<svg width="14" height="15" viewBox="0 0 14 15" fill="none" xmlns="http://www.w3.org/2000/svg">
<path d="M13.4 6.73888C13.4024 7.69211 13.1831 8.63246 12.76 9.48332C12.2582 10.5029 11.4869 11.3605 10.5324 11.96C9.57784 12.5595 8.47782 12.8773 7.35552 12.8778C6.41695 12.8802 5.49107 12.6575 4.6533 12.2278L0.599976 13.6L1.95108 9.48332C1.52793 8.63246 1.30864 7.69211 1.31109 6.73888C1.31152 5.59904 1.62441 4.48183 2.21471 3.51239C2.805 2.54295 3.6494 1.75957 4.6533 1.25C5.49107 0.820224 6.41695 0.597511 7.35552 0.599996H7.71108C9.19328 0.683046 10.5932 1.31843 11.6429 2.3845C12.6926 3.45057 13.3182 4.87241 13.4 6.37776V6.73888Z" stroke="#EEEEEE" stroke-width="1.2" stroke-linecap="round" stroke-linejoin="round"/>
</svg>
