<svg width="20" height="20" viewBox="0 0 20 20" fill="none" xmlns="http://www.w3.org/2000/svg">
<g clip-path="url(#clip0_520_9)">
<path d="M10.0013 20.1443C15.2657 20.1443 19.5491 15.658 19.5491 10.1443C19.5491 4.63054 15.2657 0.144287 10.0013 0.144287C4.73687 0.144287 0.453491 4.63054 0.453491 10.1443C0.453491 15.658 4.73687 20.1443 10.0013 20.1443Z" fill="white"/>
<path d="M5.82421 15.1444C5.91486 15.1446 6.00431 15.1227 6.08558 15.0807L11.6967 12.2094C11.816 12.1485 11.9124 12.0475 11.9706 11.9226L14.7138 6.04381C14.7686 5.92687 14.7871 5.79491 14.7667 5.6664C14.7464 5.53789 14.6881 5.41928 14.6002 5.32716C14.5122 5.23505 14.399 5.17406 14.2763 5.15272C14.1536 5.13138 14.0276 5.15078 13.916 5.20818L8.30305 8.08131C8.18373 8.14221 8.0873 8.2432 8.02915 8.36818L5.28774 14.2451C5.24311 14.3403 5.2224 14.446 5.22759 14.552C5.23277 14.658 5.26367 14.7609 5.31736 14.8509C5.37106 14.9409 5.44578 15.0151 5.53446 15.0665C5.62315 15.1178 5.72287 15.1447 5.82421 15.1444ZM9.01138 9.11006L12.8788 7.13068L10.989 11.1813L7.12271 13.1594L9.01138 9.11006Z" fill="#B3DFD4"/>
</g>
<defs>
<clipPath id="clip0_520_9">
<rect width="19.6923" height="20" fill="white"/>
</clipPath>
</defs>
</svg>
