<svg width="8" height="9" viewBox="0 0 8 9" fill="none" xmlns="http://www.w3.org/2000/svg">
<path d="M6.15582 6.10854C5.2224 6.12169 4.32164 5.75358 3.64913 5.08414C2.97663 4.41469 2.58667 3.49796 2.56394 2.53301C2.56411 2.05953 2.65703 1.591 2.83708 1.15566C3.01713 0.720321 3.28059 0.327199 3.61157 0C2.63038 0.100172 1.71939 0.571028 1.05301 1.32242C0.386642 2.07381 0.0117101 3.05294 0 4.07236C0.023781 5.17447 0.46905 6.2219 1.23827 6.98521C2.00748 7.74852 3.03793 8.16546 4.10388 8.14472C4.89767 8.15188 5.67647 7.92108 6.34607 7.48022C7.01568 7.03936 7.5474 6.40733 7.87692 5.66058C7.34741 5.95353 6.75636 6.10737 6.15582 6.10854Z" fill="white"/>
</svg>
