<svg width="21" height="21" viewBox="0 0 21 21" fill="none" xmlns="http://www.w3.org/2000/svg">
<path d="M18.2707 9.88136L15.6861 7.25636C15.606 7.17512 15.511 7.11069 15.4064 7.06674C15.3019 7.0228 15.1898 7.0002 15.0766 7.00024C14.9635 7.00028 14.8514 7.02296 14.7469 7.06698C14.6424 7.111 14.5474 7.1755 14.4674 7.2568C14.3874 7.33809 14.324 7.43459 14.2807 7.54079C14.2374 7.64699 14.2152 7.7608 14.2152 7.87573C14.2153 7.99066 14.2376 8.10446 14.2809 8.21062C14.3243 8.31679 14.3878 8.41325 14.4678 8.49448L15.5818 9.62498H10.7693C10.5408 9.62498 10.3216 9.71717 10.1601 9.88127C9.99848 10.0454 9.90771 10.2679 9.90771 10.5C9.90771 10.732 9.99848 10.9546 10.1601 11.1187C10.3216 11.2828 10.5408 11.375 10.7693 11.375H15.5818L14.4678 12.5064C14.3856 12.5871 14.3199 12.6836 14.2748 12.7904C14.2296 12.8971 14.2058 13.012 14.2049 13.1281C14.2039 13.2443 14.2257 13.3595 14.269 13.4671C14.3123 13.5746 14.3763 13.6723 14.4572 13.7545C14.5381 13.8366 14.6342 13.9016 14.7401 13.9456C14.846 13.9896 14.9595 14.0117 15.0738 14.0107C15.1882 14.0097 15.3013 13.9856 15.4064 13.9397C15.5115 13.8938 15.6066 13.8272 15.6861 13.7436L18.2707 11.1186C18.3508 11.0373 18.4143 10.9408 18.4577 10.8346C18.501 10.7284 18.5233 10.6145 18.5233 10.4995C18.5233 10.3846 18.501 10.2707 18.4577 10.1645C18.4143 10.0583 18.3508 9.96175 18.2707 9.88048V9.88136Z" fill="#23C69E"/>
<path d="M10.7692 11.375C10.5407 11.375 10.3216 11.2828 10.16 11.1187C9.99842 10.9546 9.90765 10.7321 9.90765 10.5C9.90765 10.2679 9.99842 10.0454 10.16 9.88128C10.3216 9.71719 10.5407 9.625 10.7692 9.625H14.2153V4.375C14.2147 3.67902 13.9421 3.01174 13.4576 2.51961C12.973 2.02748 12.316 1.75069 11.6307 1.75H4.73842C4.05315 1.75069 3.39614 2.02748 2.91158 2.51961C2.42702 3.01174 2.15449 3.67902 2.15381 4.375V16.625C2.15449 17.321 2.42702 17.9883 2.91158 18.4804C3.39614 18.9725 4.05315 19.2493 4.73842 19.25H11.6307C12.316 19.2493 12.973 18.9725 13.4576 18.4804C13.9421 17.9883 14.2147 17.321 14.2153 16.625V11.375H10.7692Z" fill="#15715C" fill-opacity="0.6"/>
</svg>
