<svg width="12" height="13" viewBox="0 0 12 13" fill="none" xmlns="http://www.w3.org/2000/svg">
<path d="M1.77231 6.10909C1.77231 5.94707 1.71007 5.79168 1.59928 5.67711C1.48848 5.56255 1.33822 5.49818 1.18154 5.49818H0.590769C0.434087 5.49818 0.283823 5.56255 0.173032 5.67711C0.0622416 5.79168 0 5.94707 0 6.10909C0 6.27111 0.0622416 6.4265 0.173032 6.54107C0.283823 6.65564 0.434087 6.72 0.590769 6.72H1.18154C1.33822 6.72 1.48848 6.65564 1.59928 6.54107C1.71007 6.4265 1.77231 6.27111 1.77231 6.10909ZM2.1504 9.16364L1.73095 9.59738C1.62092 9.71184 1.55916 9.86668 1.55916 10.0281C1.55916 10.1895 1.62092 10.3443 1.73095 10.4588C1.84164 10.5725 1.99137 10.6364 2.14745 10.6364C2.30352 10.6364 2.45325 10.5725 2.56394 10.4588L2.98338 10.025C3.08017 9.90815 3.13074 9.75782 3.125 9.60407C3.11926 9.45032 3.05762 9.30447 2.95241 9.19567C2.84719 9.08687 2.70615 9.02313 2.55747 9.01719C2.40879 9.01126 2.26341 9.06355 2.1504 9.16364ZM5.90769 1.83273C6.06437 1.83273 6.21464 1.76836 6.32543 1.6538C6.43622 1.53923 6.49846 1.38384 6.49846 1.22182V0.610909C6.49846 0.448886 6.43622 0.293499 6.32543 0.178931C6.21464 0.0643634 6.06437 0 5.90769 0C5.75101 0 5.60075 0.0643634 5.48996 0.178931C5.37917 0.293499 5.31692 0.448886 5.31692 0.610909V1.22182C5.31692 1.38384 5.37917 1.53923 5.48996 1.6538C5.60075 1.76836 5.75101 1.83273 5.90769 1.83273ZM9.25145 3.26225C9.40643 3.26158 9.55495 3.19795 9.66498 3.08509L10.0844 2.65135C10.1463 2.59658 10.1965 2.52919 10.232 2.45339C10.2674 2.3776 10.2873 2.29505 10.2905 2.21091C10.2936 2.12678 10.2799 2.04288 10.2502 1.96449C10.2205 1.88609 10.1755 1.81489 10.1179 1.75536C10.0603 1.69582 9.99147 1.64923 9.91566 1.61852C9.83985 1.58781 9.75872 1.57363 9.67736 1.57688C9.596 1.58013 9.51617 1.60074 9.44287 1.6374C9.36958 1.67407 9.30441 1.72601 9.25145 1.78996L8.86154 2.22371C8.75151 2.33817 8.68975 2.49301 8.68975 2.6544C8.68975 2.81579 8.75151 2.97063 8.86154 3.08509C8.96569 3.19222 9.1047 3.25538 9.25145 3.26225ZM2.16222 3.08509C2.27225 3.19795 2.42077 3.26158 2.57575 3.26225C2.6535 3.26272 2.73058 3.24731 2.80255 3.21691C2.87453 3.18651 2.94 3.14171 2.9952 3.08509C3.10523 2.97063 3.16699 2.81579 3.16699 2.6544C3.16699 2.49301 3.10523 2.33817 2.9952 2.22371L2.57575 1.78996C2.52106 1.7326 2.45597 1.68694 2.38422 1.65559C2.31246 1.62424 2.23543 1.60781 2.15753 1.60725C2.07963 1.60668 2.00239 1.62198 1.93021 1.65229C1.85803 1.68259 1.79233 1.7273 1.73686 1.78385C1.68139 1.84041 1.63724 1.90772 1.60692 1.98192C1.5766 2.05613 1.56072 2.13578 1.56017 2.21633C1.55906 2.37902 1.62049 2.5355 1.73095 2.65135L2.16222 3.08509ZM11.2246 5.49818H10.6338C10.4772 5.49818 10.3269 5.56255 10.2161 5.67711C10.1053 5.79168 10.0431 5.94707 10.0431 6.10909C10.0431 6.27111 10.1053 6.4265 10.2161 6.54107C10.3269 6.65564 10.4772 6.72 10.6338 6.72H11.2246C11.3813 6.72 11.5316 6.65564 11.6424 6.54107C11.7531 6.4265 11.8154 6.27111 11.8154 6.10909C11.8154 5.94707 11.7531 5.79168 11.6424 5.67711C11.5316 5.56255 11.3813 5.49818 11.2246 5.49818ZM9.66498 9.16364C9.55275 9.09908 9.42322 9.0741 9.29603 9.09249C9.16883 9.11088 9.05089 9.17162 8.96008 9.26554C8.86926 9.35945 8.81052 9.4814 8.79274 9.61294C8.77496 9.74447 8.79911 9.87841 8.86154 9.99447L9.28098 10.4282C9.39167 10.542 9.5414 10.6059 9.69748 10.6059C9.85355 10.6059 10.0033 10.542 10.114 10.4282C10.224 10.3138 10.2858 10.1589 10.2858 9.99753C10.2858 9.83613 10.224 9.6813 10.114 9.56684L9.66498 9.16364ZM5.90769 2.74909C5.26506 2.74909 4.63685 2.94615 4.10252 3.31535C3.56818 3.68455 3.15172 4.20931 2.90579 4.82327C2.65987 5.43723 2.59552 6.11282 2.72089 6.76459C2.84627 7.41637 3.15573 8.01507 3.61014 8.48497C4.06455 8.95487 4.64351 9.27488 5.2738 9.40453C5.90409 9.53418 6.5574 9.46764 7.15112 9.21333C7.74484 8.95902 8.2523 8.52836 8.60933 7.97581C8.96636 7.42326 9.15692 6.77364 9.15692 6.10909C9.15536 5.21846 8.81253 4.36477 8.20352 3.735C7.59451 3.10522 6.76896 2.75071 5.90769 2.74909ZM5.90769 8.24727C5.49874 8.24727 5.09897 8.12187 4.75894 7.88692C4.41891 7.65198 4.15389 7.31804 3.99739 6.92734C3.84089 6.53664 3.79995 6.10672 3.87973 5.69195C3.95951 5.27719 4.15644 4.8962 4.44561 4.59717C4.73479 4.29814 5.10321 4.0945 5.50431 4.01199C5.9054 3.92949 6.32114 3.97183 6.69896 4.13367C7.07679 4.2955 7.39971 4.56956 7.62692 4.92118C7.85412 5.2728 7.97538 5.6862 7.97538 6.10909C7.97538 6.67617 7.75754 7.22003 7.36977 7.62101C6.982 8.022 6.45608 8.24727 5.90769 8.24727ZM5.90769 10.3855C5.75101 10.3855 5.60075 10.4498 5.48996 10.5644C5.37917 10.679 5.31692 10.8343 5.31692 10.9964V11.6073C5.31692 11.7693 5.37917 11.9247 5.48996 12.0393C5.60075 12.1538 5.75101 12.2182 5.90769 12.2182C6.06437 12.2182 6.21464 12.1538 6.32543 12.0393C6.43622 11.9247 6.49846 11.7693 6.49846 11.6073V10.9964C6.49846 10.8343 6.43622 10.679 6.32543 10.5644C6.21464 10.4498 6.06437 10.3855 5.90769 10.3855Z" fill="#282A2E"/>
</svg>
