<svg width="13" height="19" viewBox="0 0 13 19" fill="none" xmlns="http://www.w3.org/2000/svg">
<path d="M6.24 13.3714C7.23265 13.3703 8.18436 12.9473 8.88627 12.1953C9.58818 11.4432 9.98297 10.4236 9.984 9.36V4.01143C9.984 2.94753 9.58955 1.92721 8.88741 1.17492C8.18527 0.422631 7.23297 0 6.24 0C5.24703 0 4.29473 0.422631 3.59259 1.17492C2.89046 1.92721 2.496 2.94753 2.496 4.01143V9.36C2.49703 10.4236 2.89182 11.4432 3.59373 12.1953C4.29565 12.9473 5.24735 13.3703 6.24 13.3714ZM3.744 4.01143C3.744 3.30216 4.00697 2.62195 4.47506 2.12042C4.94315 1.6189 5.57802 1.33714 6.24 1.33714C6.90198 1.33714 7.53685 1.6189 8.00494 2.12042C8.47303 2.62195 8.736 3.30216 8.736 4.01143V9.36C8.736 10.0693 8.47303 10.7495 8.00494 11.251C7.53685 11.7525 6.90198 12.0343 6.24 12.0343C5.57802 12.0343 4.94315 11.7525 4.47506 11.251C4.00697 10.7495 3.744 10.0693 3.744 9.36V4.01143ZM6.864 16.0123V18.0514C6.864 18.2287 6.79826 18.3988 6.68124 18.5242C6.56421 18.6496 6.40549 18.72 6.24 18.72C6.0745 18.72 5.91579 18.6496 5.79877 18.5242C5.68174 18.3988 5.616 18.2287 5.616 18.0514V16.0123C4.07756 15.8446 2.65182 15.0716 1.61448 13.8428C0.577139 12.6141 0.00190017 11.0168 0 9.36C0 9.18268 0.0657428 9.01263 0.182765 8.88725C0.299788 8.76187 0.458505 8.69143 0.624 8.69143C0.789495 8.69143 0.948212 8.76187 1.06523 8.88725C1.18226 9.01263 1.248 9.18268 1.248 9.36C1.248 10.7785 1.77394 12.139 2.71012 13.142C3.6463 14.1451 4.91604 14.7086 6.24 14.7086C7.56396 14.7086 8.8337 14.1451 9.76988 13.142C10.7061 12.139 11.232 10.7785 11.232 9.36C11.232 9.18268 11.2977 9.01263 11.4148 8.88725C11.5318 8.76187 11.6905 8.69143 11.856 8.69143C12.0215 8.69143 12.1802 8.76187 12.2972 8.88725C12.4143 9.01263 12.48 9.18268 12.48 9.36C12.4781 11.0168 11.9029 12.6141 10.8655 13.8428C9.82818 15.0716 8.40244 15.8446 6.864 16.0123Z" fill="#ABABAB"/>
</svg>
