<svg width="19" height="20" viewBox="0 0 19 20" fill="none" xmlns="http://www.w3.org/2000/svg">
<path d="M19 13.0307L19 6.96961C19.0013 6.27556 18.8137 5.5934 18.456 4.99172C18.0983 4.39004 17.5832 3.89005 16.9624 3.54202L11.5346 0.52574C10.916 0.180282 10.2143 -0.00158647 9.49997 -0.0015865C8.78566 -0.00158653 8.08393 0.180282 7.46531 0.52574L2.03759 3.55345C1.41676 3.90148 0.901606 4.40147 0.543925 5.00315C0.186242 5.60483 -0.00136125 6.28699 -2.61339e-05 6.98104L-2.63983e-05 13.0307C-0.00256511 13.725 0.184531 14.4076 0.542334 15.0095C0.900135 15.6114 1.41595 16.1112 2.03759 16.4583L7.46531 19.4917C8.08489 19.8344 8.78625 20.0147 9.49997 20.0147C10.2137 20.0147 10.9151 19.8344 11.5346 19.4917L16.9624 16.4412C17.584 16.0941 18.0998 15.5943 18.4576 14.9924C18.8154 14.3905 19.0025 13.7079 19 13.0136L19 13.0307Z" fill="white"/>
<path d="M5.78796 9.99709C5.78796 11.9784 7.44856 13.5846 9.49701 13.5846C11.5455 13.5846 13.2061 11.9784 13.2061 9.99709C13.2061 8.01575 11.5455 6.40955 9.49701 6.40955C7.44856 6.40955 5.78796 8.01575 5.78796 9.99709Z" fill="#B3DFD4"/>
</svg>
