<svg width="15" height="15" viewBox="0 0 15 15" fill="none" xmlns="http://www.w3.org/2000/svg">
<path fill-rule="evenodd" clip-rule="evenodd" d="M10.3936 1.78646C10.0186 1.78955 9.64671 2.16763 8.90293 2.9238C7.41536 4.43612 6.41952 4.94436 4.41958 4.96086C2.41965 4.97737 5.94429 7.94838 5.94429 7.94838L3.00359 11.9375L2.96869 11.9724L2.98878 11.9576L2.97743 11.973L3.00418 11.9463L6.99331 9.00555C6.99331 9.00555 9.96432 12.5302 9.98082 10.5303C9.99733 8.53033 10.5056 7.53449 12.0179 6.04692C12.7741 5.30313 13.1521 4.93124 13.1552 4.55625C13.1583 4.18127 12.7864 3.80318 12.0426 3.04702L11.973 2.9774L11.9771 2.97332L11.9028 2.89904C11.1467 2.15525 10.7686 1.78336 10.3936 1.78646Z" fill="#FEC553"/>
</svg>
